<svg width="22" height="20" viewBox="0 0 22 20" fill="none" xmlns="http://www.w3.org/2000/svg">
<path d="M10.6697 2.11412L11.0005 2.40586L11.3312 2.11404C12.4903 1.09132 14.0195 0.5 15.5615 0.5C18.9001 0.5 21.5 3.08251 21.5 6.37895C21.5 8.21075 20.7503 10.0143 19.0378 12.0795C17.5502 13.8735 15.4791 15.7285 12.6662 18.193L12.6662 18.193L12.6633 18.1956L12.663 18.1958L12.6629 18.1958L11.2432 19.4109C11.1742 19.47 11.0883 19.5 11.0006 19.5C10.9128 19.5 10.827 19.4699 10.7581 19.411L10.758 19.4109L9.34192 18.199L9.33824 18.1958L9.33632 18.1941L9.33498 18.193C9.33471 18.1927 9.33445 18.1925 9.33418 18.1923C8.90662 17.8178 8.49123 17.4565 8.08939 17.107L7.76127 17.4843L8.08938 17.107C5.74063 15.0645 3.84158 13.4104 2.52098 11.7318C1.21615 10.0732 0.5 8.41867 0.5 6.37895C0.5 3.08256 3.10008 0.5 6.43925 0.5C7.9806 0.5 9.51009 1.09142 10.6697 2.11412Z" stroke="white"/>
</svg>
